<svg id="visual" viewBox="0 0 960 540" width="960" height="540" xmlns="http://www.w3.org/2000/svg" xmlns:xlink="http://www.w3.org/1999/xlink" version="1.1"><rect x="0" y="0" width="960" height="540" fill="#ffffff"></rect><defs><linearGradient id="grad1_0" x1="43.8%" y1="0%" x2="100%" y2="100%"><stop offset="14.444444444444446%" stop-color="#001220" stop-opacity="1"></stop><stop offset="85.55555555555554%" stop-color="#001220" stop-opacity="1"></stop></linearGradient></defs><defs><linearGradient id="grad1_1" x1="43.8%" y1="0%" x2="100%" y2="100%"><stop offset="14.444444444444446%" stop-color="#001220" stop-opacity="1"></stop><stop offset="85.55555555555554%" stop-color="#4e5762" stop-opacity="1"></stop></linearGradient></defs><defs><linearGradient id="grad1_2" x1="43.8%" y1="0%" x2="100%" y2="100%"><stop offset="14.444444444444446%" stop-color="#a2a7ad" stop-opacity="1"></stop><stop offset="85.55555555555554%" stop-color="#4e5762" stop-opacity="1"></stop></linearGradient></defs><defs><linearGradient id="grad1_3" x1="43.8%" y1="0%" x2="100%" y2="100%"><stop offset="14.444444444444446%" stop-color="#a2a7ad" stop-opacity="1"></stop><stop offset="85.55555555555554%" stop-color="#ffffff" stop-opacity="1"></stop></linearGradient></defs><defs><linearGradient id="grad2_0" x1="0%" y1="0%" x2="56.3%" y2="100%"><stop offset="14.444444444444446%" stop-color="#001220" stop-opacity="1"></stop><stop offset="85.55555555555554%" stop-color="#001220" stop-opacity="1"></stop></linearGradient></defs><defs><linearGradient id="grad2_1" x1="0%" y1="0%" x2="56.3%" y2="100%"><stop offset="14.444444444444446%" stop-color="#4e5762" stop-opacity="1"></stop><stop offset="85.55555555555554%" stop-color="#001220" stop-opacity="1"></stop></linearGradient></defs><defs><linearGradient id="grad2_2" x1="0%" y1="0%" x2="56.3%" y2="100%"><stop offset="14.444444444444446%" stop-color="#4e5762" stop-opacity="1"></stop><stop offset="85.55555555555554%" stop-color="#a2a7ad" stop-opacity="1"></stop></linearGradient></defs><defs><linearGradient id="grad2_3" x1="0%" y1="0%" x2="56.3%" y2="100%"><stop offset="14.444444444444446%" stop-color="#ffffff" stop-opacity="1"></stop><stop offset="85.55555555555554%" stop-color="#a2a7ad" stop-opacity="1"></stop></linearGradient></defs><g transform="translate(960, 0)"><path d="M0 432C-66.2 436.5 -132.4 440.9 -165.3 399.1C-198.2 357.3 -197.8 269.2 -222 222C-246.3 174.9 -295.3 168.7 -334.4 138.5C-373.6 108.4 -402.8 54.2 -432 0L0 0Z" fill="#d0d2d5"></path><path d="M0 324C-49.7 327.4 -99.3 330.7 -124 299.3C-148.7 268 -148.3 201.9 -166.5 166.5C-184.7 131.2 -221.5 126.5 -250.8 103.9C-280.2 81.3 -302.1 40.6 -324 0L0 0Z" fill="#777e87"></path><path d="M0 216C-33.1 218.2 -66.2 220.5 -82.7 199.6C-99.1 178.6 -98.9 134.6 -111 111C-123.2 87.4 -147.7 84.4 -167.2 69.3C-186.8 54.2 -201.4 27.1 -216 0L0 0Z" fill="#273340"></path><path d="M0 108C-16.6 109.1 -33.1 110.2 -41.3 99.8C-49.6 89.3 -49.4 67.3 -55.5 55.5C-61.6 43.7 -73.8 42.2 -83.6 34.6C-93.4 27.1 -100.7 13.5 -108 0L0 0Z" fill="#001220"></path></g><g transform="translate(0, 540)"><path d="M0 -432C62.8 -429.1 125.7 -426.3 161.9 -390.8C198.1 -355.3 207.6 -287.3 248.9 -248.9C290.2 -210.5 363.3 -201.9 399.1 -165.3C434.9 -128.8 433.5 -64.4 432 0L0 0Z" fill="#d0d2d5"></path><path d="M0 -324C47.1 -321.8 94.3 -319.7 121.4 -293.1C148.5 -266.5 155.7 -215.5 186.7 -186.7C217.7 -157.9 272.5 -151.4 299.3 -124C326.2 -96.6 325.1 -48.3 324 0L0 0Z" fill="#777e87"></path><path d="M0 -216C31.4 -214.6 62.8 -213.1 80.9 -195.4C99 -177.7 103.8 -143.6 124.5 -124.5C145.1 -105.3 181.7 -100.9 199.6 -82.7C217.5 -64.4 216.7 -32.2 216 0L0 0Z" fill="#273340"></path><path d="M0 -108C15.7 -107.3 31.4 -106.6 40.5 -97.7C49.5 -88.8 51.9 -71.8 62.2 -62.2C72.6 -52.6 90.8 -50.5 99.8 -41.3C108.7 -32.2 108.4 -16.1 108 0L0 0Z" fill="#001220"></path></g></svg>